# xmcd
#
# Track frame offsets:
#	150
#	12073
#	23639
#	38050
#	49031
#	61404
#	71219
#	81304
#	94436
#	106851
#	117813
#	127348
#	140648
#	151589
#
# Disc length: 2156 seconds
#
# Revision: 1
# Processed by: cddbd v1.5.2PL0 Copyright (c) Steve Scherf et al.
# Submitted via: EZCDAudioConverter 5.0.3.1
#
DISCID=ba086a0e
DTITLE=The Platters - The Platters CD 1 Of 3
DYEAR=2007
DGENRE=Oldies
TTITLE0=Only You
TTITLE1=Heaven On Earth
TTITLE2=I'll Cry When You're Gone
TTITLE3=Give Thanks
TTITLE4=I Need You All The Time
TTITLE5=Voo-Vee-Ah-Bee
TTITLE6=I'm Just A Dancing Partner
TTITLE7=Please Have Mercy
TTITLE8=The Glory Of Love
TTITLE9=It Isn't Right
TTITLE10=Winner Take All
TTITLE11=Twilight Time
TTITLE12=Harbour Lights
TTITLE13=Sixteen Tons
EXTD=
EXTT0=
EXTT1=
EXTT2=
EXTT3=
EXTT4=
EXTT5=
EXTT6=
EXTT7=
EXTT8=
EXTT9=
EXTT10=
EXTT11=
EXTT12=
EXTT13=
PLAYORDER=
